<svg width="55" height="40" viewBox="0 0 55 40" fill="none" xmlns="http://www.w3.org/2000/svg">
<path fill-rule="evenodd" clip-rule="evenodd" d="M15.9921 36.662C13.8781 38.0396 10.3747 39.2655 7.28946 37.6023C4.18869 35.9308 4.01622 33.2706 4.17155 31.8934C4.21417 31.5155 4.08499 31.1318 3.79796 30.8824C2.13552 29.4379 -0.631552 26.4844 0.129732 22.8199C0.840679 19.3978 2.92361 17.4191 4.31864 16.5834C4.70514 16.3519 4.95994 15.9293 4.94707 15.479C4.89234 13.5651 5.29566 10.3444 7.28946 8.41897C9.26821 6.50803 12.054 5.78747 13.6788 5.60603C14.0856 5.5606 14.4442 5.30533 14.6157 4.93359C15.3017 3.44611 16.7608 1.16398 18.745 0.503217C21.0361 -0.259747 22.9454 -0.0689849 23.9 0.503217C24.8547 1.07542 25.8093 2.23894 25.8093 3.45968C25.8093 4.32955 25.8416 13.1929 25.8717 21.2297C24.1111 17.9952 21.9464 15.8327 21.0334 14.9206L21.0265 14.9137C20.4754 14.3631 19.1054 13.2782 17.9651 12.3947C17.3756 11.938 16.8169 11.5119 16.4058 11.2001C16.2002 11.0441 16.0312 10.9166 15.9135 10.8279L15.7771 10.7253L15.7284 10.6888C15.3429 10.3999 14.8315 10.3408 14.3901 10.534C13.9487 10.7272 13.6456 11.1429 13.5969 11.6218L14.5447 11.0893L13.5969 11.6221L13.5956 11.6343L13.5925 11.666C13.5898 11.6933 13.586 11.733 13.5813 11.784C13.5718 11.886 13.5586 12.0334 13.5433 12.2186C13.5126 12.5887 13.4736 13.111 13.4394 13.7235C13.3714 14.9407 13.3208 16.5458 13.401 18.0281C13.479 19.469 13.8048 20.7931 14.1966 21.9218C13.1089 21.6411 12.0277 21.4726 11.0933 21.3689C10.1236 21.2613 9.26596 21.2188 8.64971 21.2032C8.34098 21.1954 8.09123 21.1942 7.91643 21.1951C7.82899 21.1956 7.76018 21.1965 7.71199 21.1974L7.65538 21.1986L7.63911 21.199L7.63165 21.1992L7.67131 22.5338L7.6311 21.1992C7.19407 21.2124 6.79111 21.4382 6.55213 21.804C6.31315 22.1698 6.26838 22.6292 6.43225 23.0342L7.67131 22.5338L6.4324 23.0346L6.43462 23.0401L6.43965 23.0524L6.45755 23.0958C6.47292 23.1328 6.49512 23.1859 6.52381 23.2532C6.58116 23.3878 6.66457 23.5799 6.77124 23.8155C6.98417 24.286 7.29187 24.9351 7.672 25.651C8.41091 27.0427 9.50151 28.8392 10.7796 30.005C13.106 32.127 16.3733 34.2644 20.9407 34.2644C22.501 34.2644 23.8033 34.0897 24.8385 33.8478C25.2255 33.7574 25.5818 33.6559 25.9048 33.548V35.8857C25.9048 37.0301 25.7138 39.7005 22.4681 39.9866C20.291 40.1785 18.5863 38.2679 17.6998 36.9889C17.3267 36.4507 16.5408 36.3044 15.9921 36.662ZM25.402 30.8022L25.4058 30.8887C25.3177 30.9236 25.2196 30.96 25.1113 30.9971C24.4511 30.0369 23.53 28.8169 22.4511 27.593C21.1191 26.0819 19.4865 24.4954 17.754 23.4004C17.1152 22.163 16.1944 20.1803 16.0701 17.8839C16.0065 16.7074 16.0332 15.4125 16.0852 14.3179L16.327 14.5048C17.5255 15.4334 18.733 16.3989 19.1365 16.802C20.0723 17.7369 22.2332 19.9 23.8502 23.1309C24.6012 24.6315 25.0109 26.7288 25.2215 28.5521C25.3245 29.4446 25.3762 30.2354 25.402 30.8022ZM10.0333 24.3997C9.94833 24.2396 9.8672 24.083 9.79026 23.9314C10.1048 23.9538 10.4435 23.9836 10.7981 24.0229C12.597 24.2226 14.6315 24.6518 16.0604 25.4953C17.5646 26.3833 19.105 27.8374 20.4451 29.3578C21.113 30.1155 21.7142 30.8701 22.2184 31.547C21.8221 31.5769 21.3961 31.594 20.9407 31.594C17.2982 31.594 14.6468 29.9165 12.5819 28.033C11.6644 27.196 10.7502 25.7499 10.0333 24.3997Z" fill="#8BACA5"/>
<path fill-rule="evenodd" clip-rule="evenodd" d="M38.1032 36.662C40.2171 38.0396 43.7205 39.2655 46.8058 37.6023C49.9066 35.9308 50.079 33.2706 49.9237 31.8934C49.8811 31.5155 50.0103 31.1318 50.2973 30.8824C51.9597 29.4379 54.7268 26.4844 53.9655 22.8199C53.2546 19.3978 51.1716 17.4191 49.7766 16.5834C49.3901 16.3519 49.1353 15.9293 49.1482 15.479C49.2029 13.5651 48.7996 10.3444 46.8058 8.41897C44.827 6.50803 42.0413 5.78747 40.4165 5.60603C40.0096 5.5606 39.651 5.30533 39.4796 4.93359C38.7936 3.44611 37.3344 1.16398 35.3502 0.503217C33.0591 -0.259747 31.1498 -0.068985 30.1952 0.503217C29.2406 1.07542 28.2859 2.23894 28.2859 3.45968C28.2859 4.32955 28.2536 13.1929 28.2235 21.2297C29.9842 17.9952 32.1488 15.8327 33.0618 14.9206L33.0687 14.9137C33.6199 14.3631 34.9898 13.2782 36.1302 12.3947C36.7196 11.938 37.2783 11.5119 37.6894 11.2001C37.8951 11.0442 38.064 10.9166 38.1818 10.8279L38.3181 10.7253L38.3668 10.6888C38.7524 10.3999 39.2637 10.3408 39.7051 10.534C40.1465 10.7272 40.4496 11.1429 40.4984 11.6219L39.5506 11.0893L40.4984 11.6221L40.4996 11.6343L40.5027 11.666C40.5054 11.6933 40.5092 11.733 40.5139 11.784C40.5234 11.886 40.5367 12.0334 40.552 12.2186C40.5826 12.5887 40.6217 13.111 40.6559 13.7235C40.7238 14.9407 40.7744 16.5458 40.6942 18.0281C40.6162 19.469 40.2904 20.7931 39.8986 21.9218C40.9863 21.6411 42.0675 21.4726 43.0019 21.3689C43.9717 21.2613 44.8293 21.2188 45.4455 21.2032C45.7543 21.1954 46.004 21.1942 46.1788 21.1951C46.2662 21.1956 46.3351 21.1965 46.3832 21.1974L46.4399 21.1986L46.4561 21.199L46.4636 21.1992L46.4239 22.5338L46.4641 21.1992C46.9012 21.2124 47.3041 21.4382 47.5431 21.804C47.7821 22.1698 47.8269 22.6292 47.663 23.0342L46.4239 22.5338L47.6628 23.0346L47.6606 23.0401L47.6556 23.0524L47.6377 23.0958C47.6223 23.1328 47.6001 23.1859 47.5714 23.2532C47.5141 23.3878 47.4307 23.5799 47.324 23.8156C47.1111 24.286 46.8034 24.9351 46.4232 25.651C45.6843 27.0427 44.5937 28.8392 43.3156 30.005C40.9893 32.127 37.7219 34.2644 33.1546 34.2644C31.5942 34.2644 30.2919 34.0897 29.2567 33.8478C28.8697 33.7574 28.5134 33.6559 28.1905 33.548V35.8857C28.1905 37.0301 28.3814 39.7005 31.6272 39.9866C33.8043 40.1785 35.5089 38.2679 36.3954 36.9889C36.7685 36.4507 37.5545 36.3044 38.1032 36.662ZM28.6933 30.8022L28.6894 30.8887C28.7775 30.9236 28.8756 30.96 28.9839 30.9971C29.6441 30.0369 30.5652 28.8169 31.6441 27.593C32.9761 26.0819 34.6087 24.4954 36.3412 23.4004C36.98 22.163 37.9009 20.1803 38.0251 17.884C38.0888 16.7074 38.062 15.4125 38.0101 14.3179L37.7682 14.5049C36.5698 15.4334 35.3622 16.3989 34.9588 16.802C34.023 17.7369 31.8621 19.9 30.245 23.1309C29.494 24.6315 29.0844 26.7288 28.8738 28.5521C28.7707 29.4446 28.719 30.2354 28.6933 30.8022ZM44.0619 24.3997C44.1469 24.2396 44.228 24.083 44.305 23.9314C43.9904 23.9538 43.6518 23.9836 43.2971 24.0229C41.4982 24.2226 39.4637 24.6518 38.0348 25.4953C36.5306 26.3833 34.9902 27.8375 33.6501 29.3578C32.9822 30.1155 32.381 30.8701 31.8769 31.547C32.2732 31.5769 32.6991 31.594 33.1546 31.594C36.797 31.594 39.4484 29.9165 41.5133 28.033C42.4309 27.196 43.345 25.7499 44.0619 24.3997Z" fill="#9A6C4C"/>
</svg>
